<?xml version="1.0" encoding="UTF-8"?>
<svg xmlns="http://www.w3.org/2000/svg" viewBox="0 0 427 397.16">
  <defs>
    <style>
      .cls-1 {
        fill: #42210b;
        stroke: #42210b;
      }

      .cls-1, .cls-2, .cls-3 {
        stroke-linecap: round;
      }

      .cls-1, .cls-3 {
        stroke-linejoin: round;
        stroke-width: 6px;
      }

      .cls-4 {
        stroke-width: 5px;
      }

      .cls-4, .cls-5, .cls-6, .cls-7, .cls-8, .cls-2, .cls-9 {
        stroke-miterlimit: 10;
      }

      .cls-4, .cls-2, .cls-9 {
        stroke: #000;
      }

      .cls-5 {
        stroke-width: 3px;
      }

      .cls-5, .cls-6 {
        fill: #754c24;
      }

      .cls-5, .cls-6, .cls-7 {
        stroke: #754c24;
      }

      .cls-6 {
        stroke-width: 4px;
      }

      .cls-7 {
        fill: #f7db8d;
      }

      .cls-7, .cls-8, .cls-9 {
        stroke-width: 10px;
      }

      .cls-8 {
        fill: #b6acc1;
        stroke: #4d4d4d;
      }

      .cls-2 {
        fill: none;
        stroke-width: 7px;
      }

      .cls-3 {
        fill: #603813;
        stroke: #603813;
      }
    </style>
  </defs>
  <g id="Layer_1" data-name="Layer 1">
    <g>
      <g>
        <ellipse class="cls-8" cx="280.43" cy="29.35" rx="36" ry="23.5" transform="translate(-.34 55.24) rotate(-11.24)"/>
        <ellipse class="cls-8" cx="146.57" cy="29.1" rx="23.5" ry="36" transform="translate(89.45 167.19) rotate(-78.76)"/>
      </g>
      <path class="cls-8" d="M394,158.6c-4.26,0-8.29.96-11.91,2.66-31.2-99.94-83.17-132.56-178.62-128.1v.06c-82.69.99-129.5,35.67-158.45,128.09-3.64-1.74-7.72-2.71-12.02-2.71-15.46,0-28,12.54-28,28s12.54,28,28,28c.91,0,1.82-.05,2.71-.13.02,22.1,1.54,29.95,6.75,49.67,4.16,15.08,8.81,27.13,15.64,40.97,8.58,17.39,21.63,34.82,36.02,48.17,11.73,10.89,28.15,20.86,54.54,21.13,21.37.4,42.82-4.34,54.54-24.79.62-1.03,1.72-1.43,2.87-1.35,5.47.26,11.18.12,16.78-.03.38.22.72.53.97.95,11.73,20.45,33.17,25.19,54.54,24.79,26.39-.28,42.8-10.25,54.54-21.13,14.39-13.35,27.44-30.79,36.02-48.17,6.83-13.84,11.48-25.89,15.64-40.97,5.18-19.59,6.71-27.47,6.75-49.24.89.09,1.79.13,2.71.13,15.46,0,28-12.54,28-28s-12.54-28-28-28Z"/>
    </g>
    <g>
      <rect class="cls-9" x="150.5" y="103.1" width="23" height="8" rx="4" ry="4"/>
      <rect class="cls-9" x="253.5" y="103.1" width="23" height="8" rx="4" ry="4"/>
    </g>
    <path class="cls-4" d="M213,120.1h1c-2.2,0-12-2.8-12-5h0c0-2.2,1.8-4,4-4h15c2.2,0,4,1.8,4,4h0c0,2.2-9.8,5-12,5Z"/>
    <line class="cls-2" x1="213.5" y1="115.6" x2="213.5" y2="130.6"/>
  </g>
  <g id="Layer_2" data-name="Layer 2">
    <path class="cls-7" d="M107.68,391.92c19.55-1.63,37.53-15.93,44.34-34.34,3.67-9.97,5.45-20.67,11.62-29.44,5.11-7.85,13.81-12.26,22.5-15.24,10.7-4.16,24.36-6.24,31.97-13.86,7.36-7.42,9.08-18.5,7.99-28.92-3.26-32.48-36.78-75.45-71.62-73.42-9.84.83-16.61,7.32-22.1,15.16-7.07,9.39-14.24,22.1-24.91,27.53-14.42,7.41-29.92,2.27-45.76,5.64-12.57,2.81-25,10.65-32.71,20.61-33.18,42.16,27.85,131.55,78.46,126.3l.22-.02Z"/>
    <circle class="cls-6" cx="149.9" cy="272.34" r="19.12"/>
    <rect class="cls-5" x="63.8" y="312.8" width="44.03" height="12.75" rx="5.46" ry="5.46" transform="translate(292.9 61.58) rotate(53.85)"/>
    <polygon class="cls-3" points="167.15 273.37 154.16 255.6 285.32 164.07 294.21 176.23 167.15 273.37"/>
    <polygon class="cls-1" points="297.88 179.29 283.52 159.65 317.96 130.18 336.41 155.44 297.88 179.29"/>
  </g>
</svg>